<svg width="16" height="16" viewBox="0 0 16 16" fill="none" xmlns="http://www.w3.org/2000/svg">
<path d="M8.66667 14C8.47778 14 8.31956 13.936 8.192 13.808C8.06444 13.68 8.00044 13.5218 8 13.3333C7.99956 13.1449 8.06356 12.9867 8.192 12.8587C8.32044 12.7307 8.47867 12.6667 8.66667 12.6667H12.6667V3.33333H8.66667C8.47778 3.33333 8.31956 3.26933 8.192 3.14133C8.06444 3.01333 8.00044 2.85511 8 2.66667C7.99956 2.47822 8.06356 2.32 8.192 2.192C8.32044 2.064 8.47867 2 8.66667 2H12.6667C13.0333 2 13.3473 2.13067 13.6087 2.392C13.87 2.65333 14.0004 2.96711 14 3.33333V12.6667C14 13.0333 13.8696 13.3473 13.6087 13.6087C13.3478 13.87 13.0338 14.0004 12.6667 14H8.66667ZM7.45 8.66667H2.66667C2.47778 8.66667 2.31956 8.60267 2.192 8.47467C2.06444 8.34667 2.00044 8.18844 2 8C1.99956 7.81156 2.06356 7.65333 2.192 7.52533C2.32044 7.39733 2.47867 7.33333 2.66667 7.33333H7.45L6.2 6.08333C6.07778 5.96111 6.01667 5.81111 6.01667 5.63333C6.01667 5.45556 6.07778 5.3 6.2 5.16667C6.32222 5.03333 6.47778 4.96378 6.66667 4.958C6.85556 4.95222 7.01667 5.01622 7.15 5.15L9.53333 7.53333C9.66667 7.66667 9.73333 7.82222 9.73333 8C9.73333 8.17778 9.66667 8.33333 9.53333 8.46667L7.15 10.85C7.01667 10.9833 6.85844 11.0473 6.67533 11.042C6.49222 11.0367 6.33378 10.9671 6.2 10.8333C6.07778 10.7 6.01956 10.5418 6.02533 10.3587C6.03111 10.1756 6.09489 10.0227 6.21667 9.9L7.45 8.66667Z" fill="#C9C9C9"/>
</svg>
