<svg width="16" height="16" viewBox="0 0 16 16" fill="none" xmlns="http://www.w3.org/2000/svg">
<path d="M7.41333 4.64V6.37C7.41788 6.5807 7.35871 6.78787 7.24356 6.96439C7.12842 7.14092 6.96267 7.27857 6.768 7.35933C6.6387 7.41318 6.50006 7.44105 6.36 7.44133H4.62667C4.34703 7.44134 4.07872 7.33085 3.88018 7.13393C3.68164 6.93701 3.56895 6.66962 3.56667 6.39V4.65999C3.56649 4.52084 3.5938 4.38302 3.64703 4.25445C3.70027 4.12587 3.77837 4.00908 3.87686 3.91078C3.97535 3.81247 4.09229 3.73459 4.22097 3.6816C4.34964 3.62861 4.48751 3.60156 4.62667 3.602H6.36C6.6362 3.60367 6.90084 3.7131 7.09758 3.90697C7.29431 4.10084 7.40761 4.36385 7.41333 4.64ZM7.41333 9.63666V11.3667C7.41369 11.6466 7.30297 11.9152 7.10549 12.1135C6.90801 12.3119 6.6399 12.4238 6.36 12.4247H4.62667C4.34588 12.4247 4.07657 12.3133 3.87784 12.1149C3.67911 11.9165 3.5672 11.6474 3.56667 11.3667V9.63666C3.56808 9.35676 3.68049 9.08886 3.87922 8.89175C4.07795 8.69465 4.34677 8.58444 4.62667 8.58533H6.36C6.63902 8.58533 6.90663 8.69603 7.10411 8.89314C7.30159 9.09024 7.4128 9.35765 7.41333 9.63666ZM12.44 4.64V6.37C12.444 6.64765 12.3385 6.9157 12.1464 7.11619C11.9542 7.31667 11.6909 7.43347 11.4133 7.44133H9.68667C9.40703 7.44134 9.13872 7.33085 8.94018 7.13393C8.74164 6.93701 8.62895 6.66962 8.62667 6.39V4.65999C8.62649 4.52084 8.6538 4.38302 8.70703 4.25445C8.76027 4.12587 8.83837 4.00908 8.93686 3.91078C9.03535 3.81247 9.15229 3.73459 9.28097 3.6816C9.40964 3.62861 9.54751 3.60156 9.68667 3.602H11.4133C11.6849 3.61048 11.9428 3.72291 12.1339 3.91607C12.3249 4.10923 12.4345 4.36837 12.44 4.64ZM12.44 9.65V11.38C12.4405 11.6553 12.3334 11.92 12.1417 12.1176C11.9499 12.3152 11.6886 12.4302 11.4133 12.438H9.68667C9.40588 12.438 9.13657 12.3266 8.93784 12.1282C8.73911 11.9299 8.6272 11.6608 8.62667 11.38V9.65C8.62825 9.37015 8.74072 9.10235 8.93941 8.90528C9.1381 8.70821 9.40682 8.59795 9.68667 8.59866H11.4133C11.6872 8.60727 11.947 8.72155 12.1384 8.91756C12.3298 9.11356 12.4379 9.37605 12.44 9.65Z" fill="#5862FB"/>
<path d="M14.1667 6.46334C14.0347 6.46162 13.9086 6.40848 13.8153 6.31523C13.7219 6.22197 13.6686 6.09597 13.6667 5.96401V3.90801C13.6714 3.69969 13.6337 3.49257 13.5558 3.29932C13.4778 3.10607 13.3613 2.93073 13.2133 2.78401C12.9204 2.49438 12.5253 2.33176 12.1133 2.33134H10.08C9.94762 2.33134 9.82065 2.27885 9.72692 2.18537C9.63319 2.09189 9.58035 1.96505 9.58 1.83268C9.58018 1.70018 9.63293 1.57318 9.72668 1.47955C9.82043 1.38593 9.94751 1.33334 10.08 1.33334H12.1333C12.8089 1.35037 13.4507 1.63245 13.92 2.11868C14.1574 2.35488 14.3457 2.63582 14.4738 2.94524C14.602 3.25466 14.6675 3.58643 14.6667 3.92134V5.97734C14.663 6.10751 14.6087 6.23112 14.5154 6.32188C14.422 6.41264 14.2969 6.46339 14.1667 6.46334ZM12.1133 14.6667H10.08C9.94762 14.6667 9.82065 14.6142 9.72692 14.5207C9.63319 14.4272 9.58035 14.3004 9.58 14.168C9.58018 14.0355 9.63293 13.9085 9.72668 13.8149C9.82043 13.7213 9.94751 13.6687 10.08 13.6687H12.1333C12.4408 13.6662 12.7405 13.5722 12.9943 13.3986C13.248 13.225 13.4443 12.9797 13.558 12.694C13.6334 12.5048 13.6704 12.3024 13.6667 12.0987V10.0627C13.6668 9.93018 13.7196 9.80318 13.8133 9.70955C13.9071 9.61593 14.0342 9.56334 14.1667 9.56334C14.2992 9.56334 14.4262 9.61593 14.52 9.70955C14.6137 9.80318 14.6665 9.93018 14.6667 10.0627V12.0987C14.6679 12.6035 14.5187 13.0972 14.2382 13.5168C13.9576 13.9365 13.5583 14.263 13.0913 14.4547C12.7813 14.582 12.4487 14.648 12.1133 14.6467V14.6667ZM5.94667 14.6667H3.89333C3.5562 14.6664 3.22243 14.5998 2.91106 14.4705C2.5997 14.3413 2.31685 14.1519 2.07867 13.9133C1.84101 13.675 1.65281 13.3921 1.52489 13.0808C1.39698 12.7694 1.33188 12.4359 1.33333 12.0993V10.0633C1.33351 9.93085 1.38627 9.80385 1.48002 9.71022C1.57376 9.6166 1.70084 9.56401 1.83333 9.56401C1.96583 9.56401 2.0929 9.6166 2.18665 9.71022C2.2804 9.80385 2.33316 9.93085 2.33333 10.0633V12.0993C2.33492 12.5117 2.50011 12.9065 2.79261 13.1971C3.08511 13.4878 3.481 13.6504 3.89333 13.6493H5.94667C6.07916 13.6493 6.20624 13.7019 6.29998 13.7956C6.39373 13.8892 6.44649 14.0162 6.44667 14.1487C6.44675 14.2143 6.43387 14.2793 6.40876 14.3399C6.38365 14.4005 6.3468 14.4556 6.30034 14.502C6.25387 14.5483 6.19871 14.585 6.13801 14.6099C6.07732 14.6349 6.01229 14.6476 5.94667 14.6473V14.6667ZM1.83333 6.46334C1.70138 6.46162 1.5753 6.40848 1.48192 6.31523C1.38854 6.22197 1.33523 6.09597 1.33333 5.96401V3.90801C1.3351 3.23615 1.60368 2.59251 2.08 2.11868C2.56078 1.64232 3.20986 1.37454 3.88667 1.37334H5.94C6.07249 1.37334 6.19957 1.42593 6.29332 1.51955C6.38707 1.61318 6.43982 1.74018 6.44 1.87268C6.43965 2.00505 6.38681 2.13189 6.29308 2.22537C6.19935 2.31885 6.07238 2.37134 5.94 2.37134H3.88667C3.47428 2.3701 3.07828 2.53269 2.78575 2.82335C2.49321 3.11402 2.32808 3.50896 2.32667 3.92134V5.97734C2.32306 6.10636 2.26971 6.22899 2.17776 6.31958C2.08581 6.41016 1.96239 6.46167 1.83333 6.46334Z" fill="#5862FB"/>
</svg>
