<svg width="16" height="16" viewBox="0 0 16 16" fill="none" xmlns="http://www.w3.org/2000/svg">
<path d="M4.66667 6V2C4.66667 1.81111 4.73067 1.65289 4.85867 1.52533C4.98667 1.39778 5.14489 1.33378 5.33334 1.33333C5.52178 1.33289 5.68023 1.39689 5.80867 1.52533C5.93712 1.65378 6.00089 1.812 6.00001 2V6H6.66667V2C6.66667 1.81111 6.73067 1.65289 6.85867 1.52533C6.98667 1.39778 7.14489 1.33378 7.33334 1.33333C7.52178 1.33289 7.68023 1.39689 7.80867 1.52533C7.93712 1.65378 8.00089 1.812 8.00001 2V6C8.00001 6.62222 7.80845 7.16667 7.42534 7.63333C7.04223 8.1 6.56712 8.41111 6.00001 8.56667V14C6.00001 14.1889 5.93601 14.3473 5.80801 14.4753C5.68001 14.6033 5.52178 14.6671 5.33334 14.6667C5.14489 14.6662 4.98667 14.6022 4.85867 14.4747C4.73067 14.3471 4.66667 14.1889 4.66667 14V8.56667C4.10001 8.41111 3.62512 8.1 3.24201 7.63333C2.85889 7.16667 2.66712 6.62222 2.66667 6V2C2.66667 1.81111 2.73067 1.65289 2.85867 1.52533C2.98667 1.39778 3.14489 1.33378 3.33334 1.33333C3.52178 1.33289 3.68023 1.39689 3.80867 1.52533C3.93712 1.65378 4.00089 1.812 4.00001 2V6H4.66667ZM11.3333 9.33333H10C9.81112 9.33333 9.65289 9.26933 9.52534 9.14133C9.39778 9.01333 9.33378 8.85511 9.33334 8.66667V4.66667C9.33334 3.88889 9.61956 3.13889 10.192 2.41667C10.7645 1.69444 11.356 1.33333 11.9667 1.33333C12.1667 1.33333 12.3333 1.41111 12.4667 1.56667C12.6 1.72222 12.6667 1.90556 12.6667 2.11667V14C12.6667 14.1889 12.6027 14.3473 12.4747 14.4753C12.3467 14.6033 12.1884 14.6671 12 14.6667C11.8116 14.6662 11.6533 14.6022 11.5253 14.4747C11.3973 14.3471 11.3333 14.1889 11.3333 14V9.33333Z" fill="#5862FB"/>
</svg>
