<svg width="24" height="24" viewBox="0 0 24 24" fill="none" xmlns="http://www.w3.org/2000/svg">
<path d="M4.28571 23C3.92143 23 3.61629 22.8827 3.37029 22.648C3.12429 22.4133 3.00086 22.1233 3 21.7778V2.22222C3 1.87593 3.12343 1.58585 3.37029 1.352C3.61714 1.11815 3.92229 1.00081 4.28571 1H19.7143C20.0786 1 20.3841 1.11733 20.631 1.352C20.8779 1.58667 21.0009 1.87674 21 2.22222V21.7778C21 22.1241 20.8766 22.4146 20.6297 22.6492C20.3829 22.8839 20.0777 23.0008 19.7143 23H14.5714V16.8889H9.42857V23H4.28571ZM8.14286 13.2222H10.7143V10.7778H8.14286V13.2222ZM8.14286 8.33333H10.7143V5.88889H8.14286V8.33333ZM13.2857 13.2222H15.8571V10.7778H13.2857V13.2222ZM13.2857 8.33333H15.8571V5.88889H13.2857V8.33333Z" fill="#E52E30"/>
</svg>
